<?xml version="1.0"?>
<svg width="705" height="745" xmlns="http://www.w3.org/2000/svg" xmlns:svg="http://www.w3.org/2000/svg" enable-background="new 0 0 705 745" version="1.1" xml:space="preserve">
 <g class="layer">
  <title>Layer 1</title>
  <path d="m202.25,615.75c-11.06,-15.35 -19.26,-31.78 -26.61,-48.77c-1.15,-2.65 -6.61,-4.04 -10.31,-4.79c-3.54,-0.71 -6.49,1.38 -7.2,5.4c-2.39,13.43 -5.36,26.79 -6.97,40.31c-1.92,16.13 -2.67,32.41 -3.91,48.34c-20.03,7.54 -40.41,15.19 -60.76,22.9c-3.56,1.35 -6.93,3.29 -10.57,4.3c-1.96,0.54 -4.97,0.46 -6.31,-0.71c-1.88,-1.66 -0.91,-3.87 0.98,-6.04c8.87,-10.12 16.9,-20.95 21.72,-33.61c4.33,-11.37 7.64,-23.12 11.6,-34.63c10.65,-30.9 20.87,-61.96 32.32,-92.56c6.77,-18.08 15.6,-35.38 23.38,-53.08c2.64,-6.01 5.02,-12.14 7.36,-18.28c1.43,-3.77 0.14,-5.48 -3.6,-4.42c-4.76,1.34 -9.7,2.73 -13.9,5.23c-16.11,9.57 -31.78,19.86 -44.33,34.07c-12.2,13.83 -21.07,29.26 -22.16,48.25c-0.2,3.42 -0.81,6.82 -0.93,10.25c-0.13,3.27 -2.34,4.07 -4.68,3.66c-15.49,-2.67 -27.82,-15.31 -28.45,-31.35c-0.37,-9.56 0.25,-18.73 3.88,-27.81c6.06,-15.16 16.16,-26.98 29.16,-36.3c9.52,-6.82 19.33,-13.43 29.69,-18.83c16.2,-8.44 33.39,-14.62 51.1,-19.32c17.11,-4.53 34.48,-6.73 52.11,-8.26c13.95,-1.2 27.64,-0.32 40.95,2.59c19.02,4.16 32.6,16.03 38.73,34.88c3.99,12.26 3.33,24.99 1.14,37.62c-2.64,15.26 -9.29,28.85 -19.03,40.53c-5.79,6.94 -13.23,12.75 -20.68,17.99c-12.64,8.87 -26.56,15.45 -41.45,19.81c-1.51,0.44 -3,0.96 -4.95,1.6c10.63,26.42 25.08,49.64 50.03,65.92c0.77,-13.29 1.49,-25.81 2.25,-38.83c10.24,0.49 19.93,0.96 29.87,1.43c-1.99,-13.89 -0.8,-27.26 3.72,-39.77c8.25,-22.85 17.63,-45.29 26.71,-67.84c2.38,-5.91 5.11,-11.73 8.28,-17.24c1.15,-1.99 4.09,-4.18 6.22,-4.18c9.82,0 19.67,0.51 29.46,1.38c2.39,0.22 5.92,2.06 6.55,3.94c0.74,2.25 -0.31,5.95 -1.91,7.98c-10.92,13.93 -19.58,29.14 -25.63,45.71c-3.88,10.63 -7.39,21.51 -9.78,32.55c-1.41,6.54 -0.71,13.64 -0.23,20.44c0.37,5.3 4.65,7.47 9.67,5.79c6.47,-2.17 10.67,-7.05 13.36,-12.79c5.96,-12.7 11.11,-25.77 16.9,-38.56c6.58,-14.54 12.53,-29.49 20.51,-43.26c9.46,-16.34 22.01,-30.2 39.04,-39.63c17.19,-9.52 37.71,-8.68 52.77,2c10.07,7.14 16.38,16.82 14.29,29.13c-1.44,8.44 -6.16,16.33 -9.42,24.46c-3.67,9.19 -11.58,10.72 -20.02,10.5c-3.06,-0.08 -6.72,-0.88 -5.35,-6.13c1.59,-6.08 2.47,-12.36 3.53,-18.58c0.56,-3.29 1.54,-6.73 1.11,-9.94c-1.25,-9.25 -7.32,-11.4 -16.39,-8.77c-12.76,3.69 -21.36,12.58 -28.07,23.5c-8.24,13.4 -12.56,28.34 -15.66,43.56c-1.78,8.72 -2.88,17.67 0.53,26.57c5.3,13.8 22.89,21.3 36.61,13.29c17.3,-10.11 30.29,-24.41 43.12,-39.26c6.86,-7.95 8.79,-17.66 12.48,-26.84c3.93,-9.8 8.3,-19.47 13.21,-28.81c5.56,-10.59 12.78,-20.11 21.83,-28.07c11.32,-9.97 24.08,-16.02 39.66,-15.51c6.51,0.21 12.61,0.97 18.01,4.61c2.12,1.42 4.14,3.32 5.47,5.46c1.62,2.61 3.01,2.94 4.63,0.48c8.86,-13.49 21.88,-19.01 37.43,-19.35c6.1,-0.13 12.3,0.08 18.31,1.06c8.62,1.41 11.15,9.26 5.68,16.05c-13.09,16.26 -24.27,33.8 -33.21,52.61c-8.53,17.94 -16.31,36.31 -20.78,55.74c-3.01,13.05 -0.55,25.74 6.92,37.06c3.6,5.48 13.62,6.31 19.58,0.71c5.14,-4.82 9.23,-10.96 12.9,-17.04c1.75,-2.89 2.81,-5.79 6.53,-5.15c3.52,0.61 4.53,3.27 4.81,6.87c1.18,14.61 -9.72,32.9 -21.42,40.96c7.54,0.74 14.37,1.5 21.22,2.04c5.9,0.47 11.83,0.75 17.75,1.01c4.43,0.2 6.84,2.94 6.36,7.33c-0.71,6.32 -1.53,12.64 -1.97,18.98c-0.81,11.5 -1.26,23.02 -2.07,34.51c-1.31,18.57 -2.79,37.13 -4.26,56.61c-10.68,-0.74 -21.47,-1.48 -32.26,-2.22c-5.74,-0.4 -11.48,-0.83 -17.22,-1.18c-16.42,-1.02 -32.85,-1.94 -49.26,-3.03c-13.27,-0.89 -26.52,-1.89 -39.77,-3c-14.62,-1.23 -29.21,-2.74 -43.84,-3.94c-10.14,-0.84 -20.32,-1.29 -30.48,-2.06c-16.84,-1.26 -33.68,-2.66 -50.52,-3.96c-5.42,-0.42 -10.84,-0.7 -16.26,-1.02c-17.09,-1.01 -34.18,-1.95 -51.27,-3.02c-8.51,-0.54 -17.01,-1.26 -25.51,-1.99c-15.01,-1.29 -30.01,-2.71 -45.03,-3.96c-6.07,-0.5 -12.16,-0.8 -18.25,-1c-5.79,-0.19 -7.59,-1.99 -7.02,-7.81c0.58,-6.01 1.5,-11.99 1.93,-18.01c0.55,-7.55 0.75,-15.13 1.12,-23c-14.06,-2.9 -26.88,-8.38 -37.82,-17.32c-6.11,-4.98 -11.2,-11.21 -17,-17.14m328.28,93.25c6.59,0.33 13.18,0.5 19.75,1.04c15.02,1.22 30.01,2.75 45.02,3.92c11.16,0.87 22.34,1.28 33.5,2.08c6.02,0.43 12,1.6 18.02,1.84c8.33,0.32 16.67,0.08 25.03,0.08c2.24,-31.8 4.52,-64.02 6.8,-96.41c-5.84,-0.55 -11.18,-1.1 -16.53,-1.54c-12.42,-1.03 -24.83,-2.09 -37.25,-2.99c-14.92,-1.08 -29.84,-1.99 -44.76,-3.03c-8.68,-0.61 -17.34,-1.38 -26.01,-1.98c-15.09,-1.04 -30.18,-1.96 -45.26,-3.02c-13.26,-0.94 -26.5,-2.12 -39.76,-2.95c-18.08,-1.14 -36.18,-2.04 -54.26,-3.03c-1.17,-0.07 -2.34,0.06 -3.5,-0.04c-14.56,-1.31 -29.12,-2.77 -43.69,-3.92c-8.05,-0.64 -16.14,-0.65 -24.19,-1.18c-12.75,-0.85 -25.49,-1.84 -38.21,-2.91c-3.88,-0.32 -7.7,-1.29 -11.58,-1.62c-7.46,-0.63 -14.95,-1.03 -22.16,-1.5c-0.88,8.91 -1.9,17.04 -2.44,25.2c-1.15,17.07 -2.03,34.16 -3.06,51.25c-0.34,5.74 -0.24,11.59 -1.39,17.18c-0.73,3.55 -0.17,4.37 3.16,4.57c8.85,0.54 17.68,1.3 26.51,1.96c17.83,1.33 35.67,2.67 53.5,4c13.42,1 26.84,2.04 40.26,2.99c14.93,1.05 29.85,2.06 44.78,2.99c11.83,0.75 23.68,1.33 35.51,2.03c4.75,0.28 9.51,0.62 14.25,1.01c15.68,1.31 31.35,2.65 47.96,3.98m-267.55,-268.2c-8.38,-12.72 -21.71,-14.91 -35.19,-15.56c-6.88,-0.34 -13.9,1.63 -20.8,2.92c-1.17,0.22 -2.41,2.11 -2.93,3.49c-5.27,14.09 -10.37,28.25 -15.57,42.36c-7.19,19.51 -14.43,38.99 -21.85,59.01c8.87,-1.07 17.39,-1.34 25.54,-3.22c20.55,-4.74 39.22,-12.88 52.39,-30.71c8.24,-11.17 16.82,-21.97 20.66,-35.66c2.13,-7.62 1.62,-14.88 -2.25,-22.63m301.61,111.13c3.78,-6.88 8.31,-13.46 11.2,-20.69c8.07,-20.18 17.01,-40.15 20.74,-61.74c0.63,-3.59 -1.18,-8.36 -3.4,-11.49c-2.59,-3.62 -6.7,-3.52 -11.33,-1.63c-7.19,2.92 -12.62,7.91 -17.03,13.6c-14.94,19.29 -26.86,40.35 -32.27,64.37c-1.67,7.41 -2.01,15.42 -1.21,22.97c0.72,6.81 5.04,11.36 14.15,8.94c8.26,-2.2 12.96,-8.5 19.15,-14.33m-72.59,16.55c-0.42,-4.36 -0.84,-8.73 -1.31,-13.65c-13.67,15.4 -27.3,30.05 -45.99,39.34c8.23,1.01 15.6,2.19 23.02,2.77c15.23,1.19 30.49,2.1 45.75,3.04c11.99,0.74 24,1.25 35.99,2.06c6.26,0.42 12.48,1.44 18.74,1.89c6.77,0.5 13.56,0.66 20.78,0.98c-7.85,-10.02 -11.99,-20.76 -12.03,-33.02c-0.01,-2.68 -0.67,-5.35 -1.04,-8.02c-0.55,-0.06 -1.1,-0.12 -1.65,-0.18c-2.09,2.85 -4.11,5.76 -6.29,8.55c-11.49,14.68 -24.67,26.55 -44.98,25.73c-11.64,-0.48 -20.78,-5.36 -25.97,-16.22c-1.92,-4.02 -3.36,-8.27 -5.02,-13.27m-128.93,20.11c5.83,0.52 11.66,1.05 16.97,1.53c-2.8,-7.77 -5.56,-15.4 -8.47,-23.47c-4.76,7.13 -9.44,14.15 -14.28,21.4c1.83,0 3.47,0 5.78,0.54z" fill="#FFFFFF" id="svg_2" opacity="1"/>
  <path d="m210,176.83c-2.64,12.9 -5.88,25.22 -12.1,36.36c-5.4,9.66 -11.28,19.13 -17.87,28c-4.97,6.69 -11.35,12.22 -19.36,15.61c-15.64,6.62 -35.95,-2.84 -36.91,-20.3c-0.34,-6.16 0.95,-11.43 3.76,-16.34c2.49,-4.34 7.26,-6.53 12.11,-6.04c17.56,1.77 27.22,-9.23 35.17,-21.99c5.9,-9.46 9.79,-20.04 9.2,-31.65c-0.54,-10.7 -5.17,-18.97 -16.68,-21.01c-4.99,-0.89 -10.94,0.95 -15.9,2.93c-15.02,6 -25.85,17.38 -35.16,30.09c-11.81,16.11 -22.08,33.23 -30.62,51.34c-9.88,20.96 -17.72,42.71 -22.41,65.38c-2.21,10.66 -1.99,21.8 -3.29,32.67c-1.46,12.18 0.3,23.98 4.18,35.35c4.64,13.59 11.5,25.66 26.72,30.17c10.03,2.98 19.61,0.7 28.84,-2.79c20.45,-7.72 35.66,-22.61 50.18,-38.21c0.89,-0.95 0.58,-3.59 0.06,-5.19c-7.6,-23.33 2.36,-49.06 21.6,-62.15c19.94,-13.58 48.08,-12.48 65.72,3.75c3.17,2.92 5.77,6.45 8.88,9.44c0.88,0.85 2.81,1.4 3.96,1.07c20.2,-5.96 33.15,-19.5 41.04,-38.74c3.27,-7.96 7.1,-15.95 12.16,-22.82c4.84,-6.57 12.88,-9.57 20.72,-11.65c7.51,-1.99 15.11,-1.7 22.59,0.87c11.24,3.85 17.99,16.11 14.38,26.21c-1.6,4.49 -5.35,6.11 -9.34,6.65c-3.43,0.46 -4.82,-2.26 -5.73,-5.52c-2.01,-7.2 -8.33,-12.51 -13.96,-12.32c-5.4,0.18 -10.48,5.5 -10.99,10.9c-0.94,10.06 4.3,17.54 9.58,25.24c9.39,13.67 19.26,27.13 27.28,41.59c4.7,8.48 7.48,18.57 8.75,28.25c0.97,7.43 -2.37,15.11 -7.43,21.38c-12.86,15.97 -29.87,23.96 -50.01,23.38c-15.24,-0.44 -29.2,-5.57 -37.73,-19.84c-6.03,-10.09 -5.76,-20.79 -2.08,-31.39c2.9,-8.36 7.51,-15.84 15.37,-20.64c6.35,-3.88 12.96,-5.55 19.76,-2.09c-3.86,5.41 -8.36,10.29 -11.2,16c-4.81,9.65 -2.89,24.97 7.29,30.15c10.87,5.54 20.43,1.1 23.25,-10.4c2.88,-11.81 -0.02,-23.55 -5.25,-34.3c-6.62,-13.57 -14.07,-26.75 -20.19,-38.28c-6.56,5.67 -13.35,12.24 -20.87,17.86c-7.31,5.46 -15.35,9.94 -23.15,14.9c7.57,27.17 -4.53,53.11 -27.42,65.21c-21.42,11.31 -50.35,8.22 -70.06,-17.3c-4.06,4.75 -8.13,9.38 -12.05,14.12c-9.47,11.47 -20.16,21.61 -32.28,30.25c-12.53,8.93 -25.96,15.8 -41.09,19.31c-11.28,2.62 -22.46,2.37 -33.47,-0.44c-11.87,-3.03 -22.64,-8.43 -31.23,-17.59c-7.81,-8.34 -12.18,-18.46 -15.73,-29.08c-5.51,-16.51 -5.77,-33.61 -4.79,-50.64c0.62,-10.96 2.49,-21.96 4.96,-32.68c6.34,-27.47 16.24,-53.74 29.31,-78.72c12.86,-24.59 27.54,-47.99 48.56,-66.66c17.29,-15.35 35.86,-28.71 58.93,-33.91c22.57,-5.1 42.89,0.05 55.9,18.87c4.68,6.77 6.82,14.64 7.02,22.76c0.2,8.05 -0.55,16.12 -0.88,24.62m16.03,153.03c10.5,-3.99 12.57,-9.78 12.01,-16.81c-0.4,-5.14 -5.11,-11.19 -10.48,-12.88c-5.37,-1.69 -13.25,1.37 -16.41,6.38c-3.09,4.89 -3.36,12.84 0.45,16.34c4.34,4 5.99,7.97 3.43,13.44c-0.47,1 -1,2.23 -0.82,3.23c0.45,2.41 0.9,5 2.16,7c0.58,0.93 3.83,1.44 4.54,0.76c1.77,-1.71 3.33,-4.07 3.96,-6.43c0.86,-3.26 0.8,-6.77 1.16,-11.03z" fill="#FFFFFF" id="svg_3" opacity="1"/>
  <path d="m469.8,210.48c-2.08,7.55 -4.31,14.72 -6.59,21.89c-1.06,3.35 -2.27,6.66 -3.32,10.02c-0.99,3.18 0.64,4.96 3.77,4.45c6.22,-1.01 12.45,-2.03 18.71,-2.8c5.12,-0.63 6.41,0.98 5.63,5.87c-1.5,9.5 -7.58,14.57 -16.29,17.05c-5.25,1.49 -10.52,3.15 -15.89,3.85c-3.27,0.42 -4.18,2.15 -4.78,4.56c-4.66,18.71 -9.38,37.42 -13.77,56.2c-1.03,4.42 -1.16,9.11 -1.21,13.68c-0.09,8.92 7.12,13.28 15.46,9.94c6.25,-2.51 10.58,-7.15 14.43,-12.23c9.23,-12.18 12.42,-26.93 17.12,-41.07c4.6,-13.81 8.99,-27.83 15.19,-40.94c7.25,-15.31 17.95,-28.25 33.96,-35.58c11.57,-5.31 23.34,-6.65 34.76,0.25c3.48,2.1 6.44,5.23 9.27,8.23c2.93,3.11 4.99,4.27 8.91,0.75c6.36,-5.73 14.2,-5.25 21.98,-3c1.53,0.45 3.14,0.75 4.55,1.44c5.78,2.84 6.47,5.16 3.09,9.82c-14.88,20.56 -23.01,44.01 -27.64,68.67c-1.89,10.07 -2.31,20.43 -3.08,30.69c-0.51,6.76 1.55,13.02 4.93,18.88c3.69,6.39 11.72,8.26 18.06,4.44c5.91,-3.57 9.6,-9.19 11.54,-15.15c3.01,-9.27 4.7,-19.03 6.28,-28.69c1.01,-6.14 0.74,-12.48 1.19,-18.72c0.07,-1.06 0.72,-2.72 1.43,-2.92c1.1,-0.31 2.82,0.01 3.69,0.75c5.98,5.07 10.12,11.42 11.78,19.11c3.7,17.13 -1.65,32.2 -10.78,46.44c-7.81,12.2 -18.77,20.33 -32.71,23.27c-20.53,4.33 -42.38,-3.22 -49.15,-27.96c-0.51,-1.87 0.12,-4.06 -0.43,-5.91c-0.5,-1.71 -1.86,-3.17 -2.85,-4.73c-1.13,0.94 -2.46,1.72 -3.36,2.84c-6.65,8.26 -13.15,16.46 -22.75,21.86c-17.32,9.75 -34.56,3.36 -39.88,-16.2c-0.63,-2.33 -0.59,-4.83 -1.1,-7.19c-0.25,-1.16 -0.85,-2.87 -1.66,-3.11c-0.9,-0.27 -2.56,0.53 -3.3,1.38c-1.89,2.2 -3.3,4.8 -5.16,7.02c-12,14.24 -27.39,22.8 -45.55,26.24c-4.48,0.85 -9.36,0.75 -13.88,0.02c-12.39,-2 -16.28,-10.24 -17.35,-21.59c-1.52,-16.07 3.1,-31.3 7.01,-46.58c2.51,-9.79 5.53,-19.46 7.74,-29.32c0.96,-4.24 -2.79,-3.58 -5.33,-3.17c-4.94,0.8 -9.83,1.87 -14.76,2.74c-1.09,0.19 -2.23,0.03 -3.3,0.03c-1.55,-14.93 2.58,-21.54 16.14,-26.16c4.55,-1.54 9.29,-2.65 13.61,-4.66c2.31,-1.08 4.78,-3.34 5.67,-5.64c2.78,-7.16 4.88,-14.57 7.15,-21.92c1.59,-5.11 4.4,-8.72 9.93,-10.14c10.25,-2.63 20.4,-5.62 30.62,-8.36c0.57,-0.15 1.39,0.63 2.27,1.36m52.24,75.1c-3.01,9.12 -6.68,18.09 -8.81,27.41c-1.87,8.16 -2.9,16.67 1.65,24.78c3.32,5.93 12.98,9.78 19.22,4.95c8.29,-6.42 14.02,-14.53 17.76,-23.88c7.01,-17.56 14.01,-35.2 16.78,-54.1c0.92,-6.31 0.79,-12.6 -4.59,-17.09c-4.88,-4.07 -10.73,-3.88 -17.29,1.2c-12,9.29 -18.28,22.64 -24.72,36.73z" fill="#FFFFFF" id="svg_4" opacity="1"/>
  <path d="m329.93,113.92c-6.48,2.7 -13.55,4.52 -19.32,8.3c-10.14,6.64 -19.47,14.53 -29.2,21.81c-1.56,1.17 -3.46,1.9 -5.2,2.84c-0.45,-0.3 -0.91,-0.6 -1.36,-0.9c2.06,-4.43 3.52,-9.27 6.3,-13.19c5.92,-8.35 11.77,-16.98 19.01,-24.09c10.26,-10.07 23.29,-15.03 37.72,-16.79c21.97,-2.68 41.94,3.59 61.23,12.86c7.93,3.81 15.22,8.94 23.34,13.8c-3.31,1.78 -6.18,3.32 -9.04,4.86c0.04,0.28 0.09,0.56 0.14,0.84c2.93,-0.37 5.86,-0.92 8.81,-1.05c4.96,-0.22 3.26,-3.3 2.38,-5.65c-0.48,-1.28 -1.78,-2.72 -3.03,-3.17c-6.41,-2.31 -10.61,-7.06 -14.95,-12c-14.99,-17.04 -35.14,-25.37 -55.99,-32.37c-2.59,-0.87 -5.19,-1.67 -7.77,-2.55c-0.24,-0.08 -0.35,-0.51 -0.72,-1.07c7.25,-0.71 14.36,-1.4 21.46,-2.09c-0.01,-0.75 -0.02,-1.51 -0.04,-2.27c-22.7,-0.94 -45.4,-1.87 -68.85,-2.84c-0.69,-2.65 2.52,-4.43 5.02,-6.12c8.84,-5.94 18.65,-8.89 29.28,-10.24c16.05,-2.03 31.44,-0.35 46.59,5.1c20.98,7.54 37.13,21.03 49.03,39.67c2.21,3.47 3.22,7.72 4.79,11.61c0.43,-0.15 0.86,-0.3 1.3,-0.45c-0.97,-3.34 -1.37,-6.99 -2.99,-9.99c-7.9,-14.62 -1.38,-27.06 6.59,-38.44c11.78,-16.81 29.52,-24.48 49.11,-28.33c4.59,-0.9 9.24,-1.52 14.15,-1.83c-14.73,12.7 -30.66,24.09 -40.58,41.57c7.85,-6.69 15.57,-13.26 23.28,-19.83c0.63,0.54 1.26,1.09 1.89,1.63c-1.27,2.15 -2.4,4.4 -3.83,6.44c-8.58,12.32 -17.52,24.39 -25.69,36.98c-2.88,4.43 -3.92,10.07 -6.11,15.65c-0.36,1.04 -0.4,1.58 -0.44,2.12c0.44,-0.32 0.87,-0.63 1.31,-0.95c6.98,-8.05 14.37,-15.53 23.44,-21.41c17.94,-11.64 37.52,-17.04 58.68,-15.2c13.31,1.16 25.34,7.13 36.34,14.53c6.5,4.37 12.49,9.64 18.08,15.15c2.79,2.75 4.15,6.96 6.85,11.74c-10.78,-2.91 -20.07,-5.43 -29.59,-8c0.95,3.15 6.4,2.59 4.73,7.19c1.43,1.04 3.31,2.43 5.2,3.81c-0.15,0.46 -0.3,0.91 -0.45,1.37c-1.69,-0.32 -3.38,-0.61 -5.07,-0.96c-12.61,-2.65 -25.15,-5.8 -37.87,-7.77c-5.88,-0.92 -12.24,-0.18 -18.18,0.9c-10.11,1.83 -20.21,4.05 -30.04,7.02c-6.66,2.02 -12.84,5.6 -19.17,8.45c7.87,-0.89 15.86,-1.56 23.78,-2.74c17.11,-2.54 32.97,0.16 46.89,10.85c16.2,12.45 25.31,29.5 30.59,48.8c3.25,11.9 -0.4,22.83 -6.26,33.7c-1.73,-4.83 -2.91,-9.97 -5.33,-14.44c-3.95,-7.31 -7.96,-14.82 -13.28,-21.11c-16.88,-19.96 -39.54,-30.51 -64.37,-36.5c-10.99,-2.64 -22.37,-4.5 -33.65,-4.93c-16.02,-0.61 -30.98,4.3 -44.12,13.63c-8.99,6.38 -17.52,13.41 -26.29,20.09c-0.8,0.62 -1.9,0.85 -3.69,0.5c2.21,-3.99 4.42,-7.98 6.63,-11.96c-24.23,18.72 -40.01,44.16 -57.41,68.84c-9.49,-38.61 11.26,-95.61 84.94,-100.91c-6.75,-0.45 -14.14,-0.82 -21.51,-1.47c-5.18,-0.46 -10.31,-1.5 -15.49,-1.92c-13.86,-1.14 -25.39,4.97 -36.59,12.08c-4.05,2.57 -8.3,4.82 -13.75,7.96c3.58,-11.79 9.27,-20.2 19.18,-26.41c1.03,-0.64 1.57,-0.8 2.11,-0.97c-0.09,-0.3 -0.18,-0.59 -0.27,-0.89c-0.9,0.37 -1.79,0.74 -2.68,1.11z" fill="#FFFFFF" id="svg_5" opacity="1"/>
  <path d="m588.99,176.9c-5.26,-11.89 -5.83,-23.82 -4.31,-36.24c1.89,-15.43 10.83,-26.18 22.91,-34.15c6.36,-4.2 14.37,-6.09 22.39,-6.56c9.25,-0.53 18.59,-0.01 27.04,3.35c7.46,2.96 13.86,8.38 18.78,15.1c6.38,8.72 9.15,18.51 10.36,29.22c1.73,15.21 -1.86,29.06 -11.43,40.27c-9.14,10.7 -21.45,17.27 -36.44,16.09c-6.98,-0.55 -14.18,-0.52 -20.86,-2.31c-10.12,-2.72 -18.05,-9.23 -24.09,-17.85c-1.5,-2.13 -2.88,-4.34 -4.35,-6.92z" fill="#FFFFFF" id="svg_6" opacity="1"/>
  <path d="m345.01,415.23c3.22,-6.86 8.28,-11.46 14.44,-15.07c6.69,-3.92 18.87,-2.55 22.34,2.04c5.61,7.42 6.71,16.25 1.76,24.76c-3.49,5.99 -8.23,10.74 -14.59,13.52c-6.78,2.96 -15.48,2.33 -22.09,-3.99c-4.18,-4 -5.89,-14.79 -1.86,-21.26z" fill="#FFFFFF" id="svg_7" opacity="1"/>
  <path d="m457.66,142.01c11.08,3.82 20.93,8.99 29.95,15.94c8.18,6.31 12.05,15.01 14.22,24.39c2.78,12.02 1.28,23.86 -4.88,34.81c-0.82,1.45 -2.19,2.6 -4.31,5.05c-2.16,-17.79 -2.83,-34.59 -13.31,-48.24c-10.21,-13.3 -22.05,-24.75 -41.05,-27.63c4.98,-5.09 9.66,-5.01 14.19,-5.12c1.58,-0.03 3.17,0.51 5.19,0.8z" fill="#FFFFFF" id="svg_8" opacity="1"/>
  <path d="m408.26,197c-6.73,-2.27 -6.93,-3.03 -5.28,-9.14c2.2,-8.18 3.58,-16.6 6.13,-24.65c1.97,-6.21 5.02,-12.1 7.93,-17.97c2.1,-4.22 9.61,-5.53 14.69,-2.95c5.11,2.59 6.79,6.93 4.34,12.09c-2.59,5.49 -4.83,10.95 -4.18,17.24c0.12,1.17 -0.84,2.87 -1.83,3.65c-4.73,3.73 -6.03,9.07 -7.01,14.48c-1.45,7.97 -4.62,9.99 -12.44,7.49c-0.6,-0.19 -1.28,-0.17 -2.35,-0.24z" fill="#FFFFFF" id="svg_9" opacity="1"/>
  <path d="m203.39,263.23c-2.19,1.1 -4.03,2 -6.51,3.21c2.28,-12.25 2.44,-24.28 12.28,-33.3c8.78,-8.04 22.53,-11.67 34.62,-6.83c14.81,5.93 21.03,18.19 21.07,32.31c0.02,5.7 -1.61,11.41 -2.55,17.5c-2.9,-2.26 -5.59,-3.89 -7.6,-6.12c-1.13,-1.24 -1.89,-3.66 -1.53,-5.25c1.57,-6.91 1.37,-13.29 -2.44,-19.61c-4.58,-7.57 -14.27,-12.25 -23.63,-10.04c-9.25,2.17 -15.15,9.06 -17.25,17.74c-0.91,3.78 1.16,10.01 -6.46,10.39z" fill="#FFFFFF" id="svg_10" opacity="1"/>
  <path d="m392.3,247.7c-0.57,-1.61 -1.32,-3.12 -0.97,-4.31c2.09,-7 2.95,-14.14 3.99,-21.36c2.11,-14.61 4.96,-18.51 24.25,-18.98c-0.86,5.36 -1.42,10.59 -2.58,15.68c-1.39,6.05 -3.39,11.97 -4.96,17.99c-0.85,3.28 -0.89,6.22 -5.93,6.58c-4.59,0.33 -9,3.01 -13.8,4.4z" fill="#FFFFFF" id="svg_11" opacity="1"/>
  <path d="m330.12,114.1c0.7,-0.55 1.59,-0.92 2.49,-1.29c0.09,0.3 0.18,0.59 0.27,0.89c-0.54,0.17 -1.08,0.33 -1.88,0.7c-0.39,0.1 -0.53,-0.01 -0.88,-0.3z" fill="#000000" id="svg_19" opacity="1"/>
  <path d="m447.41,103.57c-0.3,0.54 -0.73,0.85 -1.17,1.17c0.04,-0.54 0.08,-1.08 0.4,-1.72c0.39,0.05 0.5,0.19 0.77,0.55z" fill="#000000" id="svg_20" opacity="1"/>
  <path d="m609,635.79c-0.32,5.58 -2.13,6.79 -6.74,5.98c-5.11,-0.9 -10.32,-1.37 -15.5,-1.61c-0.87,-0.04 -2.45,1.92 -2.65,3.12c-0.7,4.2 -0.93,8.48 -1.44,13.72c3.08,0 6.29,0.02 9.5,-0.01c3.73,-0.03 6.56,0.51 4.91,5.48c-0.75,2.25 -0.37,6.59 -1.23,6.78c-3.22,0.74 -6.74,0.18 -10.15,0.06c-1.09,-0.03 -2.18,-0.19 -3.18,-0.29c-0.68,6.05 -1.33,11.83 -1.99,17.66c7.39,0.8 15.16,1.63 23.7,2.55c-0.42,3.86 -0.45,7.78 -1.47,11.43c-0.32,1.16 -3.34,2.36 -5,2.21c-10.07,-0.89 -20.1,-2.17 -30.63,-3.37c0.29,-6.68 0.45,-13.68 0.95,-20.67c0.45,-6.34 1.39,-12.65 1.89,-18.99c0.78,-9.98 1.26,-19.98 2.18,-29.95c0.1,-1.06 2.29,-2.74 3.51,-2.75c4.74,-0.01 9.5,0.44 14.23,0.91c6.16,0.62 12.31,1.44 19.11,2.24c0,1.53 0,3.29 0,5.5z" fill="#FFFFFF" id="svg_21" opacity="1"/>
  <path d="m421,681.96c-0.41,2.5 -0.82,4.55 -1.39,7.37c-11.69,-1 -23.49,-2.02 -35.94,-3.09c0.79,-8.08 1.52,-15.52 2.26,-22.96c0.35,-3.58 0.86,-7.14 1.04,-10.73c0.43,-8.23 0.64,-16.48 1.06,-24.71c0.17,-3.42 0.49,-6.85 1.08,-10.22c0.17,-0.97 1.38,-2.29 2.35,-2.52c8.33,-2.01 10.89,-0.18 10.46,8.35c-0.71,14.4 -1.92,28.78 -2.9,43.17c-0.1,1.49 0.12,3.01 -0.05,4.49c-0.41,3.58 0.8,5.07 4.68,4.99c4.57,-0.1 9.15,0.51 13.72,0.93c2.63,0.24 4.19,1.55 3.63,4.93z" fill="#FFFFFF" id="svg_22" opacity="1"/>
  <path d="m489.98,666.72c-1.23,5.57 -2.09,10.57 0.6,15.62c1.01,1.89 1.27,4.34 1.33,6.54c0.04,1.73 -0.45,4.75 -1.26,4.95c-1.8,0.44 -4.45,0.12 -5.88,-1.01c-5.01,-3.97 -9.73,-7.99 -8.9,-15.78c1.46,-13.66 2.03,-27.4 3.18,-41.09c0.43,-5.04 5.99,-10.68 10.89,-11.98c2.21,-0.59 4.32,-1.54 7.02,-2.53c-0.25,5.66 1.15,10.33 -3.79,14.54c-2.24,1.91 -1.79,7.25 -2.11,11.07c-0.54,6.38 -0.73,12.8 -1.08,19.67z" fill="#FFFFFF" id="svg_23" opacity="1"/>
  <path d="m616.34,703.98c-5.64,-2 -3.33,-6.51 -3.14,-9.71c0.43,-7.26 2.16,-14.44 2.72,-21.7c0.95,-12.45 1.54,-24.93 2,-37.4c0.12,-3.33 1.26,-4.27 4.43,-4.23c7.54,0.11 9.65,2.93 8.22,10.1c-1.04,5.26 -1.23,10.71 -1.54,16.08c-0.76,13.25 -1.27,26.52 -2.07,39.76c-0.41,6.75 -1.16,7.12 -10.62,7.1z" fill="#FFFFFF" id="svg_24" opacity="1"/>
  <path d="m523,669.27c0.67,-6.31 1.53,-12.13 1.95,-17.98c0.54,-7.57 0.56,-15.17 1.2,-22.73c0.11,-1.27 2.16,-2.4 3.37,-3.54c0.17,-0.16 0.64,-0.01 0.97,-0.02c8.78,-0.19 9.84,1.07 8.52,9.65c-0.77,4.95 -1.63,9.91 -1.95,14.9c-0.55,8.9 -0.57,17.84 -1.11,26.74c-0.39,6.34 -1.12,12.68 -2.11,18.96c-0.17,1.08 -2.35,2.55 -3.66,2.6c-2.54,0.1 -5.11,-0.67 -7.18,-1.01c0,-9.02 0,-18.06 0,-27.57z" fill="#FFFFFF" id="svg_25" opacity="1"/>
  <path d="m308,678c0.2,3.13 -0.7,3.44 -3.18,2.41c-9.56,-3.95 -12.63,-13.48 -11.76,-22.49c0.49,-5.01 1.59,-9.98 1.88,-14.99c0.69,-11.8 1.06,-23.62 1.59,-36.2c4.52,0.51 8.31,0.94 12.98,1.48c-0.83,11.42 -1.75,22.68 -2.46,33.95c-0.49,7.89 -0.72,15.81 -1.03,23.72c-0.03,0.64 -0.06,1.56 0.32,1.9c3.19,2.85 2.36,6.32 1.66,10.22z" fill="#FFFFFF" id="svg_26" opacity="1"/>
  <path d="m638,686.77c0.67,-9.92 1.3,-19.4 2.02,-28.88c0.19,-2.42 0.69,-4.82 0.97,-7.24c0.32,-2.74 -0.45,-4.84 -3.41,-5.69c-0.6,-0.17 -1.54,-0.92 -1.49,-1.31c0.45,-3.92 1.07,-7.81 1.66,-11.82c11.07,3.69 15.06,11.78 15.17,21.53c0.15,12.89 0.01,25.84 -3.96,38.31c-2.98,9.34 -8.73,13.67 -16.96,12.98c0,-2.61 0,-5.25 0,-7.88c0,-2.32 -0.39,-4.54 3.17,-5.02c1.13,-0.16 1.9,-2.95 2.83,-4.98z" fill="#FFFFFF" id="svg_27" opacity="1"/>
  <path d="m547.35,698.98c-1.08,-3.42 -1.82,-6.82 -2.32,-10.24c-1.07,-7.38 -2.81,-14.78 -2.79,-22.17c0.01,-7.36 1.6,-14.75 2.97,-22.04c0.78,-4.21 2.65,-8.2 3.77,-12.35c0.93,-3.48 2.22,-6.05 6.54,-5.22c1.45,0.27 2.99,0 4.49,0.05c2.63,0.08 3.5,1.3 2.58,3.88c-1.82,5.11 -3,10.54 -5.42,15.35c-4.4,8.78 -2.63,17.7 -1.71,26.66c0.88,8.55 1.94,17.07 2.97,26.1c-4.05,0 -7.33,0 -11.08,-0.02z" fill="#FFFFFF" id="svg_28" opacity="1"/>
  <path d="m323.71,676.79c-3.13,1.96 -5.98,3.66 -9.65,5.85c0.07,-6.31 -1.15,-11.6 2.71,-16.25c0.84,-1.01 1.13,-2.7 1.18,-4.09c0.42,-11.42 0.57,-22.84 1.11,-34.24c0.3,-6.3 1.21,-12.56 1.82,-18.64c0.87,-0.23 1.18,-0.39 1.5,-0.39c9.87,0.05 12.47,-1.75 9.66,11.25c-0.17,0.8 -0.01,1.67 -0.04,2.5c-0.67,14.33 -0.96,28.7 -2.25,42.97c-0.34,3.74 -3.77,7.2 -6.04,11.04z" fill="#FFFFFF" id="svg_29" opacity="1"/>
  <path d="m352,645.98c-3.45,-8.51 -7.18,-16.51 -10.08,-24.81c-0.92,-2.6 -0.74,-7.17 0.92,-8.73c2.87,-2.71 9.71,0 11.13,3.79c4.78,12.73 9.34,25.54 14.05,38.29c1.17,3.15 2.91,6.11 3.88,9.32c1.01,3.35 1.86,6.88 1.97,10.36c0.11,3.37 -0.82,6.77 -1.38,10.78c-3.02,-0.07 -5.31,-0.3 -6.8,-4.44c-4.16,-11.53 -9.05,-22.79 -13.69,-34.56z" fill="#FFFFFF" id="svg_30" opacity="1"/>
  <path d="m442,668.24c0.01,4.25 0.38,7.59 2.68,11.21c1.72,2.69 0.34,7.35 0.34,11.1c-5.7,0.43 -11.33,-3.08 -13,-8.22c-3.49,-10.77 -2.21,-21.88 -1.63,-32.83c0.37,-7.02 2.24,-13.98 3.65,-20.93c1.22,-6.04 6.61,-7.52 11.35,-9.4c0.71,-0.29 3.21,1.47 3.25,2.34c0.14,3.71 0.64,7.64 -2.78,10.59c-0.96,0.83 -1.67,2.41 -1.79,3.71c-0.5,5.57 -0.72,11.16 -1.07,16.74c-0.32,5.08 -0.67,10.16 -1,15.69z" fill="#FFFFFF" id="svg_31" opacity="1"/>
  <path d="m453.39,628.14c0.63,-2.92 0.97,-5.54 1.37,-8.65c9.16,3.93 13.96,9.4 13.33,19.09c-0.72,11.03 -0.14,22.18 -1.28,33.16c-0.97,9.22 -3.51,18.35 -15.47,20.02c-1.78,-5.48 -2.64,-10.85 2.11,-15.89c1.15,-1.23 1.33,-3.6 1.5,-5.48c0.77,-8.97 0.97,-18.02 2.2,-26.93c0.8,-5.86 -2.5,-10.09 -3.76,-15.32z" fill="#FFFFFF" id="svg_32" opacity="1"/>
  <path d="m339,645.15c0.32,-3.35 0.63,-6.22 0.95,-9.09c0.47,-0.05 0.93,-0.1 1.39,-0.15c4.88,15.14 14.83,29.14 8.85,47.1c-2.7,0 -6.14,-0.13 -9.56,0.04c-3.41,0.16 -3.8,-1.8 -3.64,-4.45c0.69,-10.99 1.34,-21.98 2.01,-33.45z" fill="#FFFFFF" id="svg_33" opacity="1"/>
  <path d="m376,650.31c-0.71,2.73 -1.98,3.31 -2.91,0.8c-2.86,-7.76 -5.96,-15.49 -7.95,-23.48c-1.11,-4.49 -0.2,-9.47 -0.2,-13.88c0.53,-0.45 0.66,-0.65 0.78,-0.65c13.82,0.03 11.08,-2.47 11.21,13.59c0.06,7.73 -0.6,15.46 -0.93,23.62z" fill="#FFFFFF" id="svg_34" opacity="1"/>
  <path d="m501.85,679.42c0.74,-3.77 1.35,-7.15 2.01,-10.79c1.7,0.68 2.6,1.01 3.47,1.4c6.34,2.82 6.82,4.5 4.78,11.81c-1.76,6.3 -4.14,11.69 -11.66,12.33c-1.51,0.13 -3.05,-0.16 -4.78,-0.27c2.03,-5.34 -0.31,-11.57 6.18,-14.48z" fill="#FFFFFF" id="svg_35" opacity="1"/>
  <path d="m515.82,642.47c-3.49,2.26 -6.82,4.12 -9.06,5.37c-2.03,-4.88 -4.59,-9.06 -5.41,-13.56c-0.7,-3.83 0.59,-8.03 1,-12.07c7.66,-0.12 13.68,10.34 13.47,20.26z" fill="#FFFFFF" id="svg_36" opacity="1"/>
 </g>
</svg>