<?xml version="1.0"?>
<svg width="705" height="745" xmlns="http://www.w3.org/2000/svg" xmlns:svg="http://www.w3.org/2000/svg" enable-background="new 0 0 705 745" version="1.1" xml:space="preserve">
 <g class="layer">
  <title>Layer 1</title>
  <path d="m74.76,250.62c-4.05,13.93 -8.59,27.35 -11.54,41.11c-2.4,11.15 -3.73,22.7 -3.97,34.1c-0.23,11.73 1.23,23.59 6.01,34.55c2.31,5.31 5.35,10.42 8.75,15.12c7.41,10.22 17.53,13.98 30.2,12.63c17.2,-1.85 31.09,-10.19 43.85,-20.86c6.98,-5.83 13.19,-12.57 19.95,-18.69c2.54,-2.29 3.06,-4.42 1.98,-7.66c-7.77,-23.37 2.33,-49.05 21.81,-62.1c19.84,-13.3 47.72,-12.35 65.54,4.04c2.73,2.52 5.96,4.86 7.73,7.98c2.07,3.67 4.29,3.12 7.23,2.08c18.72,-6.66 31,-19.77 38.74,-37.82c3.43,-8.02 7.18,-16.11 12.18,-23.18c4.81,-6.81 13.01,-9.61 20.91,-11.8c7.58,-2.11 15.24,-1.68 22.72,0.91c11.12,3.84 17.68,16.23 14.07,26.2c-1.66,4.58 -5.47,6.03 -9.53,6.59c-2.38,0.32 -4.66,-1.29 -5.07,-4.08c-0.68,-4.53 -3.53,-7.52 -6.61,-10.58c-3.19,-3.18 -6.76,-4.24 -10.74,-2.48c-4.32,1.91 -7.49,4.99 -8,10.16c-0.98,9.94 4.12,17.46 9.39,25.07c9.06,13.09 18.22,26.13 26.65,39.62c5.83,9.33 9.12,20 9.57,30.96c0.32,7.45 -2.47,14.7 -7.33,20.76c-13.05,16.29 -30.39,24.3 -50.9,23.48c-14.85,-0.59 -28.46,-5.69 -36.83,-19.61c-6.12,-10.2 -5.87,-20.92 -2.22,-31.65c2.89,-8.47 7.67,-15.93 15.54,-20.76c6.24,-3.83 12.82,-5.35 20.06,-1.66c-2.92,3.46 -5.67,6.67 -8.36,9.93c-6.94,8.44 -7.51,22.72 -1.28,31.61c3.42,4.88 12.49,8.21 18.12,6.17c5.29,-1.92 9.61,-7.15 10.66,-14.04c2.53,-16.54 -4.11,-30.65 -11.49,-44.56c-4.97,-9.35 -10.2,-18.55 -15.71,-28.55c-10.82,15.77 -25.78,26.46 -42.67,34.4c7.47,28.69 -4.24,53.41 -27.09,65.87c-18.02,9.83 -48.68,11.24 -70.5,-17.47c-10.09,13.22 -20.64,26.11 -33.92,36.32c-8.77,6.74 -17.52,13.87 -27.28,18.89c-19.22,9.9 -39.51,13.92 -61.09,7.17c-23.56,-7.37 -36.62,-23.58 -43.58,-46.68c-5.12,-17.02 -5.65,-34.25 -4.45,-51.4c1.56,-22.47 7.45,-44.25 15.07,-65.49c9.33,-26.02 21.52,-50.58 36.48,-73.81c8.98,-13.94 19.57,-26.5 31.88,-37.49c15.9,-14.2 33.1,-26.56 54.09,-32.27c17.04,-4.64 33.57,-4.65 48.78,6.18c9.56,6.82 15.44,15.87 17.41,27.36c3.9,22.66 -1.28,43.89 -10.26,64.58c-6.05,13.95 -14.06,26.62 -24.81,37.28c-9.16,9.07 -20.76,15.48 -35.3,9.94c-8.98,-3.43 -14.27,-9.78 -15.68,-19.53c-1.05,-7.22 0.65,-13.38 5.09,-19.01c3.74,-4.74 9.44,-4.28 14.1,-4.19c12.05,0.23 19.74,-6.51 26.58,-14.75c7.5,-9.05 12.26,-19.71 13.97,-31.28c1.42,-9.58 0.56,-19.05 -8.46,-25.53c-7.78,-5.6 -15.73,-3.83 -23.6,-0.51c-15,6.34 -26.47,17.27 -35.23,30.46c-10.96,16.5 -20.88,33.74 -30.46,51.09c-4.59,8.33 -7.36,17.66 -11.15,26.88m135.04,59.09c-1.61,4.6 -1.95,9.9 1.66,12.85c6.01,4.91 4.72,10.28 3.24,16.15c-0.12,0.47 -0.52,0.87 -0.61,1.34c-0.69,3.74 0.57,6.66 4.24,7.83c3.04,0.97 6.38,-2.34 6.64,-6.22c0.13,-1.83 -0.02,-3.67 0.04,-5.5c0.11,-3.81 0.95,-6.73 5.26,-8.43c6.89,-2.71 9.77,-11.43 6.88,-18.23c-2.31,-5.43 -6.15,-8.89 -12.11,-9.47c-7.1,-0.69 -11.96,2.65 -15.24,9.68z" fill="#E43A45" id="svg_2" opacity="1"/>
  <path d="m291.86,582.89c0.17,-8.87 -0.73,-17.92 0.71,-26.58c3.27,-19.66 11.01,-37.97 19.22,-56.05c6.17,-13.6 12.15,-27.28 18.03,-41c1.7,-3.96 4.33,-5.58 8.49,-5.27c9.55,0.7 19.13,1.12 28.66,2.06c6.06,0.59 8.05,5.85 4.61,10.95c-6.13,9.11 -12.96,17.86 -18.07,27.52c-5.35,10.12 -9.64,20.93 -13.22,31.82c-2.95,8.97 -4.57,18.44 -6,27.8c-0.67,4.42 0.14,9.17 0.91,13.67c0.6,3.53 5.01,5.32 8.56,4.33c7.68,-2.15 12.11,-7.78 15.16,-14.53c7.02,-15.51 13.61,-31.2 20.63,-46.7c4.94,-10.93 9.76,-21.98 15.58,-32.44c11.43,-20.52 27.06,-37.25 49.64,-45.11c14.82,-5.15 29.66,-2.73 42.91,6.75c9.43,6.74 14.95,15.53 14.2,27.18c-0.75,11.64 -6.22,21.68 -12.75,31.1c-3.21,4.64 -14.39,7 -19.54,4.68c-1.36,-0.61 -2.89,-3.12 -2.71,-4.55c0.81,-6.41 2.27,-12.73 3.37,-19.11c0.58,-3.35 1.64,-6.85 1.21,-10.11c-1.16,-8.72 -6.86,-11.5 -16.35,-8.82c-12.18,3.44 -20.6,11.73 -27.08,21.9c-10.12,15.88 -14.98,33.84 -17.78,52.22c-1.35,8.8 -1.27,18.14 4.94,25.59c8.18,9.84 20.29,14.47 33.31,7.13c17.31,-9.78 30.13,-24.24 42.92,-38.97c7.03,-8.09 9.01,-18.01 12.76,-27.39c3.83,-9.6 8.21,-19.03 12.97,-28.21c5.33,-10.29 12.46,-19.32 20.9,-27.39c13.26,-12.68 28.98,-18.27 47.04,-16.16c7.96,0.93 15.14,4.53 19.15,13.01c1.18,-1.43 2.07,-2.33 2.75,-3.36c8.44,-12.73 21.4,-17.72 35.57,-19.29c7.05,-0.77 14.54,0.64 21.58,2.21c7.29,1.62 9.26,9.31 4.54,15.12c-12.77,15.74 -23.66,32.74 -32.5,50.93c-8.98,18.49 -17.02,37.49 -21.7,57.57c-3.1,13.29 -0.78,26.17 7.16,37.6c3.72,5.36 14,5.58 19.95,-0.43c4.84,-4.88 8.49,-10.99 12.26,-16.82c1.59,-2.47 2.6,-5.28 6.11,-4.58c3.33,0.66 4.97,3.06 5.02,6.46c0.27,17.17 -7.37,30.34 -21.22,41.02c-18.69,-1.06 -36.74,-2.44 -54.95,-4.12c-7.67,-9.15 -11.3,-19.48 -11.83,-31.02c-0.14,-3.12 -0.57,-6.22 -0.95,-10.33c-1.91,1.52 -2.7,2.08 -3.41,2.73c-0.73,0.67 -1.58,1.32 -2.06,2.16c-5.28,9.43 -12.86,16.65 -21.71,22.63c-9.84,6.64 -20.63,9.26 -32.25,6.54c-15.17,-3.56 -23.21,-16.6 -24.63,-30.98c-0.34,-3.5 -0.92,-6.97 -1.51,-11.27c-2.48,2.91 -4.38,5.34 -6.5,7.58c-11.61,12.27 -23.85,23.79 -39.38,31.82c-21.5,-1.57 -42.54,-3.09 -63.78,-4.89c-3.31,-7.61 -6.43,-14.95 -9.45,-22.07c-4.41,6.24 -9.38,13.29 -14.79,20.39c-5.55,-0.27 -10.68,-0.5 -15.78,-0.91c-16.31,-1.3 -32.62,-2.67 -48.92,-4.01m290.11,-67.4c4.88,-15.24 9.84,-30.46 14.59,-45.75c1.4,-4.48 -0.24,-8.62 -3.34,-11.81c-3.35,-3.43 -7.1,-3.3 -11.73,-1.36c-7.21,3.03 -12.48,8.22 -17.06,13.92c-11.8,14.67 -20.63,31.15 -27.48,48.7c-4.73,12.09 -7.17,24.47 -5.94,37.48c0.76,7.93 6.6,11.86 14.17,9.66c10.96,-3.2 17.86,-11.4 23.13,-20.5c5.41,-9.33 9.1,-19.67 13.66,-30.34z" fill="#014E87" id="svg_3" opacity="1"/>
  <path d="m256.9,650.09c-17.48,-3.28 -32.68,-11.41 -45.46,-23.42c-9.86,-9.27 -16.87,-21 -23.08,-33c-4.46,-8.62 -8.28,-17.57 -12.42,-26.35c-2.09,-4.44 -6.32,-5.05 -10.42,-5.22c-3.75,-0.16 -6.66,1.51 -7.4,5.7c-2.35,13.39 -5.35,26.71 -6.97,40.19c-1.92,16.06 -2.67,32.26 -3.95,48.76c-12.29,4.31 -25.21,8.61 -37.94,13.38c-10.3,3.86 -20.42,8.19 -30.52,12.55c-5.41,2.33 -10.01,1.6 -9.86,-2.31c0.08,-2.18 1.93,-4.62 3.58,-6.39c13.66,-14.58 21.35,-32.13 26.73,-51.1c4.16,-14.68 9.15,-29.14 14.16,-43.57c7.39,-21.28 14.7,-42.62 22.86,-63.61c5.99,-15.43 13.36,-30.32 20.01,-45.5c3.68,-8.41 7.2,-16.89 10.65,-25.4c0.48,-1.18 0.15,-2.7 0.19,-4.07c-1.73,-0.04 -3.55,-0.46 -5.17,-0.05c-12.04,3.04 -21.99,10.22 -31.91,17.12c-12.38,8.61 -23.61,18.64 -32.39,31.13c-8.09,11.5 -13.53,23.94 -14.61,38.09c-0.27,3.62 -0.26,7.33 -1.18,10.79c-0.41,1.56 -2.98,3.87 -4.25,3.68c-15.15,-2.22 -27.43,-14.83 -28.72,-30.99c-1.34,-16.83 3.44,-31.5 13.05,-44.81c8.93,-12.37 21.03,-21.42 33.72,-29.48c15.58,-9.88 32.41,-17.46 49.94,-23.11c18.39,-5.92 37.06,-10.52 56.49,-12.37c17.46,-1.66 34.74,-2.48 51.88,1.36c14.57,3.27 27.4,9.88 35.09,23.5c5.54,9.81 8.53,20.25 8.2,31.85c-0.3,10.65 -1.53,20.99 -5.2,30.93c-7.45,20.18 -20.54,35.45 -38.97,46.86c-13.43,8.32 -27.6,14.44 -43.4,19.71c10.2,26.26 24.8,49.04 49.17,65.49c-0.41,10.28 -1.16,19.97 -1.9,29.66m-73.4,-163.02c-5.49,15.08 -10.98,30.17 -16.81,46.21c10.13,-1.53 19.48,-2.34 28.53,-4.44c13.85,-3.21 27.53,-7.73 38.02,-17.8c13.84,-13.3 25.87,-28.12 31.67,-46.95c2.78,-9.05 1.93,-17.5 -3.79,-25.56c-4.78,-6.75 -11.78,-9.33 -18.98,-11.41c-10.14,-2.92 -20.44,-1.53 -30.73,0.05c-5.21,0.8 -7.15,3.5 -8.79,8.24c-5.91,17.1 -12.43,34 -19.12,51.66z" fill="#014E87" id="svg_4" opacity="1"/>
  <path d="m590.63,231.13c7.48,-1.97 14.34,-0.84 20.91,1.92c5.94,2.5 6.57,5.22 3.23,9.86c-15.82,21.96 -23.73,47.13 -28.77,73.36c-2.22,11.55 -3.47,23.23 -0.81,34.78c1.12,4.86 3.26,10.3 6.73,13.62c5.84,5.59 15.74,2.64 20.79,-4.11c8.39,-11.23 11.28,-24.37 12.27,-38.03c0.47,-6.58 0.64,-13.19 1.07,-19.77c0.06,-0.97 0.65,-2.59 1.21,-2.69c1.22,-0.22 2.96,-0.09 3.84,0.66c7.43,6.29 11.98,14.39 12.81,24.04c1.53,17.74 -4.87,32.85 -15.7,46.72c-9.68,12.4 -22.58,18.83 -37.47,19.19c-19.99,0.48 -34.62,-8.12 -40.64,-29.6c-0.66,-2.32 -0.15,-4.99 -0.93,-7.24c-1.3,-3.74 -2.78,-3.73 -5.2,-0.56c-6.58,8.62 -13.25,16.98 -23.06,22.49c-17.11,9.61 -34.54,3.48 -39.85,-16.24c-0.63,-2.34 -0.59,-4.86 -1.12,-7.23c-0.26,-1.14 -0.97,-2.83 -1.78,-3.02c-0.94,-0.23 -2.53,0.62 -3.28,1.49c-1.8,2.09 -3.12,4.59 -4.89,6.71c-11.96,14.29 -27.43,22.54 -45.46,26.59c-7.72,1.73 -14.94,1 -21.74,-2.85c-7.37,-4.18 -9.1,-11.52 -9.76,-19.16c-1.3,-15.15 2.71,-29.58 6.38,-44.03c2.55,-10.08 5.16,-20.14 7.63,-30.23c1.08,-4.41 -0.18,-5.46 -4.57,-4.57c-5.89,1.19 -11.82,2.16 -17.71,3.23c-2.72,-13.85 2.41,-21.89 14.36,-26.38c4.86,-1.82 10.11,-2.66 14.81,-4.77c2.44,-1.1 4.94,-3.66 5.92,-6.14c2.79,-7.09 4.81,-14.48 7.15,-21.74c1.59,-4.94 4.32,-8.55 9.78,-9.87c9.62,-2.34 19.15,-5.08 28.74,-7.55c1.23,-0.31 2.61,-0.03 3.92,-0.03c-0.02,1.74 0.4,3.62 -0.12,5.19c-2.99,8.94 -6.27,17.79 -9.32,26.71c-1.28,3.75 0.26,5.14 4.13,4.49c6.6,-1.09 13.22,-2.04 19.86,-2.81c3.26,-0.37 4.73,2.56 3.97,6.74c-1.7,9.3 -7.69,14.31 -16.37,16.66c-5.16,1.4 -10.3,3.13 -15.57,3.82c-3.51,0.46 -4.36,2.34 -5.01,5c-4.44,18.31 -8.98,36.59 -13.22,54.94c-1.09,4.75 -1.63,9.72 -1.7,14.6c-0.14,8.92 7.45,13.46 15.72,9.75c9.04,-4.06 15.28,-11.32 18.91,-19.95c5.53,-13.14 9.91,-26.78 14.21,-40.39c6.9,-21.78 14.69,-43.04 31.99,-59.09c9.62,-8.92 20.86,-14.66 34.31,-14.58c9.6,0.06 17.63,4.06 23.86,11.35c4.8,5.6 4.68,5.66 10.86,1.18c1.31,-0.95 2.85,-1.57 4.68,-2.46m-27.62,56.44c2,-9.35 5.08,-18.63 5.73,-28.08c0.9,-13.16 -11.16,-17.27 -18.86,-12.68c-3.99,2.38 -7.98,5.45 -10.7,9.15c-12.48,16.91 -21.48,35.56 -25.73,56.26c-1.75,8.52 -3.1,17.01 1.39,25.4c3.24,6.06 13.27,9.9 19.29,5.07c6.87,-5.51 12.31,-11.96 15.71,-19.72c4.94,-11.29 8.82,-23.03 13.17,-35.4z" fill="#E43B46" id="svg_5" opacity="1"/>
  <path d="m329.97,113.97c-6.49,2.7 -13.57,4.51 -19.35,8.3c-10.13,6.62 -19.44,14.49 -29.16,21.75c-1.61,1.2 -3.54,1.97 -5.32,2.93c-0.44,-0.37 -0.87,-0.75 -1.3,-1.12c2.03,-4.32 3.65,-8.89 6.17,-12.9c6.76,-10.76 13.71,-21.48 24.41,-28.89c10.05,-6.97 21.11,-11.34 33.45,-12.04c13.02,-0.73 25.9,-0.13 38.44,3.95c15.12,4.91 29.13,12 42.17,21.06c0.62,0.43 0.98,1.25 1.66,2.17c-2.51,1.43 -4.75,2.7 -6.98,3.97c0,0.29 0.01,0.57 0.01,0.85c1.69,0 3.45,0.3 5.05,-0.07c2.15,-0.5 4.18,-1.51 6.27,-2.3c-0.98,-2.14 -1.41,-5.49 -3.01,-6.21c-10.94,-4.89 -16.12,-16.22 -25.47,-22.46c-10.3,-6.88 -21.56,-12.41 -32.75,-17.83c-6.67,-3.24 -13.99,-5.15 -20.92,-8.72c6.53,-0.69 13.06,-1.39 19.59,-2.08c0,-0.67 -0.01,-1.34 -0.02,-2.01c-22.43,-1.56 -44.89,-2.48 -68.74,-2.83c1.96,-2.34 3.32,-4.93 5.47,-6.37c8.84,-5.96 18.67,-8.92 29.34,-10.3c15.27,-1.96 30.08,-0.33 44.45,4.32c12.2,3.94 23.86,9.63 33.03,18.95c6.21,6.32 12.04,13.12 17.22,20.31c2.98,4.13 4.3,9.45 6.39,14.23c0.38,0.88 0.87,1.7 2.11,2.27c-1.49,-4.78 -2.29,-9.93 -4.6,-14.28c-6.36,-11.97 -2.34,-22.69 3.46,-33.02c11.37,-20.26 30.47,-29 52.08,-33.52c4.22,-0.89 8.62,-0.91 13.12,-0.74c-13.98,12.03 -28.65,22.94 -38.42,39.41c-0.24,0.84 -0.21,1.21 -0.19,1.57c0.24,-0.36 0.47,-0.73 0.7,-1.1c4.65,-4.34 9.15,-8.84 13.99,-12.95c2.56,-2.17 5.71,-3.64 9.62,-4.8c-0.42,1.12 -0.61,2.41 -1.29,3.34c-7.4,10.18 -15.48,19.91 -22.13,30.55c-4.79,7.68 -7.71,16.52 -11.74,25.39c-0.35,1.14 -0.42,1.73 -0.49,2.33c0.18,0.01 0.36,0.03 0.54,0.04c0.05,-0.71 0.1,-1.43 0.14,-2.14c1.2,-0.73 2.72,-1.19 3.55,-2.22c15.07,-18.73 34.87,-28.91 58.32,-32.83c21.44,-3.59 40.19,2.74 58.01,14.16c8.57,5.49 16.57,11.15 21.06,20.58c0.66,1.37 0.83,2.97 1.5,5.53c-9.71,-2.61 -18.43,-4.95 -27.56,-7.41c3.13,4.1 5.93,7.75 9.31,12.18c-19.23,-2.53 -36.85,-10.68 -56.36,-8.21c-18.94,2.4 -36.96,6.75 -53.39,15.93c7.42,-0.97 15.18,-1.97 22.95,-3c17.3,-2.28 33.46,0.26 47.4,11.6c15.58,12.68 25.25,29.01 29.75,48.55c2.4,10.44 0.19,25.91 -5.71,33.85c-1.29,-3.2 -2.77,-5.86 -3.44,-8.71c-2.81,-12 -9.84,-21.32 -18.04,-30.11c-19.33,-20.7 -44.27,-30.16 -71.1,-35.72c-7.86,-1.62 -15.93,-2.83 -23.93,-2.97c-10.71,-0.18 -21.26,1.76 -31.14,6.33c-12.05,5.59 -22.63,13.29 -32.4,22.24c-2.86,2.62 -6.38,4.53 -9.59,6.76c-0.42,-0.43 -0.84,-0.86 -1.26,-1.29c2.07,-3.8 4.13,-7.6 6.2,-11.4c-24.07,18.5 -39.62,43.93 -57.25,68.83c-9.16,-46.42 15.83,-94.96 85.02,-101.13c-7.26,-0.51 -14.4,-0.9 -21.51,-1.55c-5.23,-0.48 -10.42,-1.55 -15.66,-1.93c-14.68,-1.06 -26.59,6.03 -38.41,13.36c-3.32,2.05 -6.81,3.85 -11.43,6.45c2.97,-11.98 9.39,-19.73 18.59,-26.21c0.78,-0.66 1.19,-0.89 1.61,-1.12c-0.09,-0.17 -0.19,-0.33 -0.28,-0.5c-0.6,0.32 -1.2,0.63 -1.81,0.95z" fill="#2C6B4F" id="svg_6" opacity="1"/>
  <path d="m256.95,650.54c0.69,-10.14 1.44,-19.83 2.19,-29.98c0.28,-1.01 0.78,-1.55 0.8,-2.12c0.38,-8.42 0.63,-16.85 1.06,-25.27c0.18,-3.58 0.71,-7.14 1.03,-10.21c9.83,0 19.37,0 29.37,-0.04c16.76,1.31 33.07,2.68 49.38,3.98c5.1,0.41 10.23,0.64 16.19,1.02c8.58,0.66 16.31,1.26 24.03,1.85c21.04,1.52 42.08,3.04 63.89,4.84c6.53,0.65 12.28,0.98 18.03,1.37c4.59,0.32 9.17,0.69 13.76,1.07c15.7,1.31 31.4,2.72 47.11,3.92c10.37,0.79 20.77,1.32 31.16,1.93c11.34,0.66 22.68,1.28 34.02,1.91c18.05,1.39 36.1,2.77 54.59,4.09c1.32,0.32 2.2,0.98 3.11,1.04c11.86,0.73 23.72,1.45 35.59,2.03c4.97,0.25 7.42,3.16 6.75,8c-0.82,6 -1.55,12.02 -1.97,18.06c-0.8,11.52 -1.23,23.07 -2.04,34.59c-1.31,18.64 -2.8,37.27 -4.28,56.61c-10.42,-0.5 -20.85,-0.91 -31.26,-1.54c-6.06,-0.38 -12.09,-1.26 -18.15,-1.66c-16.39,-1.09 -32.8,-1.97 -49.2,-3.06c-13.3,-0.89 -26.6,-1.86 -39.89,-2.97c-14.56,-1.21 -29.11,-2.67 -43.66,-3.94c-8.85,-0.77 -17.7,-1.4 -26.56,-2.05c-18.22,-1.35 -36.44,-2.7 -54.67,-3.97c-10.81,-0.75 -21.64,-1.28 -32.45,-2.06c-17.22,-1.25 -34.43,-2.64 -51.64,-3.95c-4.93,-0.38 -9.87,-0.72 -14.8,-1.02c-11.52,-0.68 -23.05,-1.26 -34.57,-2.02c-8.36,-0.55 -16.72,-1.25 -25.07,-2.03c-4.72,-0.44 -5.1,-4.01 -4.79,-7.63c0.54,-6.19 1.48,-12.35 1.93,-18.55c0.53,-7.25 0.72,-14.52 1.01,-22.24m357.71,-33.54c-11.29,-1 -22.58,-2.11 -33.88,-2.96c-14.79,-1.12 -29.59,-2.07 -44.38,-3.03c-16.13,-1.04 -32.27,-2 -48.41,-3.02c-5.1,-0.32 -10.2,-0.67 -15.3,-1.02c-19.23,-1.32 -38.45,-2.65 -57.68,-3.96c-1.16,-0.08 -2.34,0.04 -3.5,-0.06c-14.86,-1.3 -29.72,-2.7 -44.59,-3.91c-7.91,-0.65 -15.84,-0.91 -23.76,-1.45c-11.83,-0.81 -23.65,-1.66 -35.46,-2.62c-4.73,-0.38 -9.43,-1.21 -14.16,-1.61c-7.34,-0.62 -14.69,-1.04 -22.1,-1.55c-0.4,3.95 -0.77,7.19 -1.06,10.44c-0.79,8.83 -1.75,17.65 -2.26,26.49c-0.37,6.34 0.17,12.74 -0.25,19.08c-0.72,10.64 -1.92,21.25 -2.85,31.88c-0.27,3.04 -1.61,7.49 -0.18,8.8c1.94,1.77 6.06,1.28 9.27,1.52c17.5,1.36 35.01,2.66 52.52,3.94c5.59,0.41 11.2,0.55 16.78,1.05c14.23,1.26 28.43,2.75 42.66,3.95c9.91,0.84 19.85,1.38 29.77,2.02c15.95,1.02 31.9,2.03 47.85,3.01c6.26,0.38 12.54,0.54 18.79,1.02c16.89,1.27 33.77,2.66 50.66,3.99c4.7,0.37 9.41,0.64 14.12,1.02c16.05,1.31 32.1,2.75 48.16,3.95c11.18,0.83 22.39,1.27 33.57,2.07c6.04,0.43 12.04,1.4 18.07,1.84c8.18,0.59 16.38,0.9 24.91,1.35c0,-3.67 -0.21,-6.5 0.03,-9.28c1.27,-14.89 2.85,-29.75 3.94,-44.65c0.95,-13.12 1.03,-26.31 2.24,-39.4c0.45,-4.8 -1.23,-4.95 -4.91,-4.98c-6.93,-0.05 -13.87,-0.43 -20.79,-0.94c-12.3,-0.89 -24.58,-1.98 -37.82,-2.98z" fill="#E43B46" id="svg_7" opacity="1"/>
  <path d="m663.64,107.23c14.41,9.81 20.75,23.48 22.5,40.17c1.58,15.05 -2.12,28.26 -11.1,40.08c-2.44,3.22 -5.42,6.42 -8.87,8.38c-8.86,5.06 -18.02,9.24 -28.88,8.28c-8.06,-0.71 -16.06,-0.13 -23.79,-3.82c-15.47,-7.39 -25.17,-19.15 -28.42,-35.89c-2.45,-12.65 -2.66,-25.57 3.42,-37.23c5.44,-10.42 13.35,-18.98 24.98,-23.23c14.26,-5.2 28.5,-5.93 42.78,-0.26c2.41,0.96 4.71,2.21 7.38,3.52z" fill="#FFD067" id="svg_8" opacity="1"/>
  <path d="m386.68,416.94c-0.44,12.55 -15.45,26.19 -26.75,25.18c-13.87,-1.23 -19.96,-11.69 -16.48,-23.35c2.43,-8.1 7.9,-14.91 16.01,-18.52c13.58,-6.04 26.75,-1.45 27.22,16.69z" fill="#014F87" id="svg_9" opacity="1"/>
  <path d="m471.3,147.67c10.13,4.9 19.32,10.79 24.89,20.22c5.86,9.92 8.41,21.1 5.95,32.71c-1.19,5.57 -3.25,10.97 -5.19,16.35c-0.55,1.53 -2.05,2.72 -4.04,5.24c-0.81,-4.86 -1.78,-8.29 -1.91,-11.74c-0.91,-24.98 -13.16,-43.35 -33.23,-57.05c-3.04,-2.08 -6.88,-2.98 -10.36,-4.41c-2.51,-1.03 -5.04,-2.02 -7.4,-3.81c11.03,-7.45 20.96,-2.08 31.29,2.49z" fill="#2D6B50" id="svg_10" opacity="1"/>
  <path d="m404.47,195.71c-1.03,-1.77 -2.55,-3.51 -2.26,-4.87c2.02,-9.39 4,-18.83 6.84,-28c1.92,-6.23 5.04,-12.13 7.95,-18.01c1.83,-3.68 10.13,-4.66 15.31,-2.19c4.14,1.98 6.15,7.22 3.88,11.74c-2.81,5.58 -4.86,11.18 -4.29,17.55c0.09,0.95 -0.59,2.35 -1.37,2.94c-5.22,3.96 -6.42,9.77 -7.51,15.63c-1.2,6.51 -2.74,8.01 -9.18,7.46c-3.04,-0.26 -6.02,-1.34 -9.37,-2.25z" fill="#2C6B4F" id="svg_11" opacity="1"/>
  <path d="m218.22,227.02c18.28,-8.76 43.38,2.65 45.63,24.37c0.82,7.91 -0.24,16.01 -0.44,24.02c-0.54,0.1 -1.07,0.21 -1.61,0.31c-2.6,-2.08 -5.46,-3.93 -7.69,-6.36c-0.97,-1.05 -1.1,-3.4 -0.79,-5c1.28,-6.62 1.29,-12.83 -2.46,-18.89c-4.86,-7.85 -11.73,-11 -20.71,-10.48c-7.87,0.46 -13.8,4.14 -17.44,10.96c-1.79,3.37 -3.24,7.26 -3.5,11.01c-0.28,3.97 -1.76,5.47 -5.38,6.22c-2.15,0.44 -4.09,1.89 -6.54,3.09c1.18,-16.46 4.33,-31.25 20.93,-39.25z" fill="#E43B46" id="svg_12" opacity="1"/>
  <path d="m405.5,243.35c-3.58,1.43 -6.79,2.66 -9.99,3.92c-3.09,1.21 -5.03,-0.11 -4.47,-3.27c1.59,-9 3.24,-17.99 5.01,-26.95c2.09,-10.52 10.12,-15.67 23.21,-12.35c-0.56,4.35 -0.76,8.91 -1.79,13.28c-1.56,6.64 -3.82,13.11 -5.51,19.71c-0.86,3.38 -1.98,5.96 -6.46,5.66z" fill="#2C6B4F" id="svg_13" opacity="1"/>
  <path d="m330.07,114.09c0.51,-0.44 1.11,-0.75 1.71,-1.07c0.09,0.17 0.19,0.33 0.28,0.5c-0.42,0.23 -0.83,0.46 -1.48,0.81c-0.22,0.12 -0.41,-0.12 -0.51,-0.24z" fill="#000000" id="svg_20" opacity="1"/>
  <path d="m446.98,102.99c-0.05,0.7 -0.1,1.42 -0.15,2.13c-0.18,-0.01 -0.36,-0.03 -0.54,-0.04c0.07,-0.6 0.14,-1.19 0.46,-1.93c0.25,-0.15 0.24,-0.16 0.23,-0.16z" fill="#000000" id="svg_21" opacity="1"/>
  <path d="m458.24,61.16c-0.14,0.43 -0.37,0.8 -0.61,1.16c-0.02,-0.36 -0.05,-0.73 0.14,-1.22c0.22,-0.11 0.39,0.01 0.47,0.06z" fill="#000000" id="svg_22" opacity="1"/>
  <path d="m585.17,627.99c8.11,0.7 15.76,1.4 23.83,2.14c0,2.13 0,3.92 0,5.71c-0.02,5.73 -1.49,6.59 -7.33,5.56c-4.83,-0.85 -9.8,-1.15 -14.71,-1.19c-0.98,-0.01 -2.59,2.14 -2.84,3.5c-0.74,3.95 -0.94,8 -1.48,13.29c3.08,0 6.43,0.03 9.77,-0.01c3.63,-0.04 6.38,0.46 4.69,5.29c-0.82,2.37 -0.46,6.69 -1.63,7.08c-2.93,0.95 -6.43,0.18 -9.7,0.06c-1.08,-0.04 -2.16,-0.23 -3.23,-0.35c-0.66,5.96 -1.29,11.61 -1.98,17.83c7.34,0.72 15.09,1.48 23.65,2.32c-0.43,3.95 -0.47,7.9 -1.51,11.56c-0.32,1.14 -3.43,2.28 -5.15,2.13c-9.94,-0.9 -19.85,-2.19 -30.43,-3.42c0.33,-6.7 0.54,-13.71 1.04,-20.7c0.44,-6.05 1.35,-12.05 1.81,-18.09c0.78,-10.18 1.29,-20.39 2.16,-30.56c0.09,-1.11 1.81,-2.94 2.81,-2.97c3.25,-0.1 6.52,0.49 10.23,0.82z" fill="#E43B46" id="svg_24" opacity="1"/>
  <path d="m387,647.02c0.67,-9.99 1.25,-19.51 2.14,-29c0.1,-1.09 1.94,-2.02 2.99,-3c0.09,-0.08 0.32,0 0.49,-0.02c9.38,-0.75 9.74,-0.73 9.3,8.69c-0.68,14.33 -1.92,28.63 -2.88,42.95c-0.12,1.82 0.04,3.66 -0.05,5.48c-0.14,2.71 0.96,3.75 3.76,3.96c5.2,0.39 10.4,1.1 15.52,2.07c1.08,0.21 2.53,2.1 2.58,3.27c0.09,2.37 -0.66,4.78 -1.19,7.92c-11.82,-1.02 -23.52,-2.03 -35.89,-3.09c1.11,-13.34 2.17,-26.04 3.23,-39.23z" fill="#E43B46" id="svg_25" opacity="1"/>
  <path d="m496.99,629.56c-0.14,1.07 -0.06,1.95 -0.45,2.3c-6.6,5.89 -4.9,13.89 -5.55,21.3c-0.61,7.02 -1.59,14.02 -1.86,21.04c-0.12,2.93 1.16,5.91 1.84,8.86c0.18,0.78 0.79,1.55 0.73,2.28c-0.24,2.93 -0.66,5.85 -1.01,8.78c-2.79,-1.1 -5.83,-1.8 -8.32,-3.37c-9.19,-5.81 -6.27,-15.21 -6.19,-23.48c0.07,-8.03 1.17,-16.06 1.82,-24.08c0.46,-5.75 0.87,-11.74 5.93,-15.46c3.66,-2.69 8,-4.45 13.07,-7.18c0,3.98 0,6.28 -0.01,9.01z" fill="#E43B46" id="svg_26" opacity="1"/>
  <path d="m618.03,633.48c3.6,-4.85 7.73,-2.31 11.04,-0.59c1.43,0.75 1.94,4.45 1.83,6.75c-0.37,7.37 -1.29,14.71 -1.89,22.07c-1.02,12.77 -1.78,25.56 -3.02,38.31c-0.6,6.27 -5.91,3.64 -9.32,3.87c-3.64,0.25 -3.99,-2.68 -3.67,-5.51c0.94,-8.13 2.04,-16.24 2.88,-24.38c0.55,-5.25 0.84,-10.52 1.1,-15.79c0.4,-8.09 0.69,-16.18 1.05,-24.73z" fill="#E43B46" id="svg_27" opacity="1"/>
  <path d="m535.02,685.95c-0.37,3.55 -0.44,6.71 -1.23,9.68c-0.27,1.03 -2.31,2.22 -3.56,2.23c-2.57,0.03 -5.14,-0.69 -8.53,-1.24c0.63,-9.89 1.23,-19.89 1.91,-29.89c0.39,-5.73 1.02,-11.46 1.37,-17.2c0.43,-7.09 0.55,-14.21 1.17,-21.28c0.1,-1.16 2.02,-3 3.2,-3.07c2.73,-0.18 5.57,0.3 8.24,1.01c0.77,0.2 1.61,2.1 1.54,3.18c-0.95,16.11 -2.02,32.22 -3.13,48.33c-0.18,2.6 -0.64,5.19 -0.98,8.25z" fill="#E43B46" id="svg_28" opacity="1"/>
  <path d="m296,620.86c0.35,-4.84 0.7,-9.21 1.07,-13.84c4.07,0.47 7.61,0.87 11.9,1.37c0,4.18 0.2,8.61 -0.04,13.02c-0.52,9.56 -1.25,19.11 -1.94,28.66c-0.25,3.44 -0.94,6.87 -0.85,10.29c0.08,2.99 1.16,5.93 1.47,8.93c0.4,3.77 0.46,7.57 0.67,11.43c-10.13,-0.61 -16.22,-11.32 -15.28,-22.04c0.75,-8.52 1.33,-17.04 2,-25.56c0.31,-3.93 0.67,-7.86 1,-12.26z" fill="#E43B45" id="svg_29" opacity="1"/>
  <path d="m637.42,690.02c1.06,-10.8 1.79,-21.3 2.61,-31.8c0.16,-2.11 0.78,-4.18 0.94,-6.29c0.23,-3.03 0.36,-6.12 -3.69,-7.01c-0.48,-0.1 -1.2,-0.85 -1.16,-1.22c0.46,-3.91 1.05,-7.82 1.62,-11.86c11.22,3.82 15.03,11.73 15.17,21.38c0.21,12.95 0.12,25.96 -3.96,38.47c-3.07,9.4 -8.63,13.61 -16.71,12.98c0.07,-5.33 -2.62,-11.48 5.18,-14.65z" fill="#E43B46" id="svg_30" opacity="1"/>
  <path d="m546.13,698.01c-1.43,-10.87 -3.15,-21.28 -4.01,-31.76c-0.86,-10.42 1.87,-20.38 5.82,-29.98c0.25,-0.6 0.61,-1.17 0.82,-1.78c2.65,-7.94 2.64,-7.86 10.55,-7.54c3.12,0.13 4.3,1.03 3.12,4.28c-1.78,4.88 -2.66,10.18 -5.03,14.72c-4.6,8.83 -3.08,17.78 -1.96,26.87c1.05,8.44 1.96,16.9 3.04,26.29c-4.54,-0.24 -8.4,-0.45 -12.35,-1.1z" fill="#E43B46" id="svg_31" opacity="1"/>
  <path d="m331.99,635.71c-0.33,2.91 -0.83,5.33 -0.96,7.77c-0.42,7.57 -0.49,15.17 -1.1,22.73c-0.59,7.19 -7.58,13.62 -17.31,15.41c1.6,-5.71 3.01,-10.75 4.42,-15.81c0.34,-1.24 0.88,-2.48 0.92,-3.73c0.4,-11.24 0.56,-22.49 1.1,-33.71c0.3,-6.34 1.17,-12.65 1.85,-19.64c4.18,0.51 7.86,0.96 11.09,1.35c0,8.47 0,16.81 -0.01,25.63z" fill="#E43B46" id="svg_32" opacity="1"/>
  <path d="m343.65,626.24c-1.05,-3.77 -2.19,-7.19 -2.48,-10.69c-0.08,-1.08 2.04,-3.23 3.35,-3.4c7.42,-0.95 8.02,-0.22 10.57,6.81c5.9,16.17 12.04,32.25 17.96,48.41c0.71,1.94 1.02,4.16 0.9,6.22c-0.23,3.73 -0.91,7.44 -1.42,11.25c-3.82,0.59 -5.72,-1.12 -7.15,-4.78c-6.99,-17.9 -14.29,-35.68 -21.73,-53.82z" fill="#E43C47" id="svg_33" opacity="1"/>
  <path d="m442.06,661.68c-0.01,2.98 -0.4,5.59 0.03,8.07c0.53,3.01 2.14,5.84 2.58,8.85c0.57,3.91 0.45,7.91 0.62,11.82c-6.04,0.66 -11.54,-2.73 -13.24,-8.25c-1.08,-3.53 -1.92,-7.29 -1.96,-10.95c-0.14,-14.11 -0.8,-28.29 3.81,-41.98c2.08,-6.16 6.71,-9.69 13.62,-10.1c1.84,4.9 2.23,9.44 -2.17,13.52c-1,0.93 -1.2,3 -1.3,4.57c-0.45,6.75 -0.68,13.51 -1.09,20.26c-0.08,1.26 -0.6,2.51 -0.9,4.19z" fill="#E43B46" id="svg_34" opacity="1"/>
  <path d="m467.32,665.42c-0.6,4.15 -0.68,7.95 -1.41,11.63c-1.53,7.81 -5.74,13.33 -14.49,14.7c-2.07,-5.41 -2.51,-10.6 1.74,-15.68c1.23,-1.46 1.59,-3.9 1.77,-5.94c0.8,-9 1.42,-18.01 2.06,-27.02c0.3,-4.14 -0.64,-7.76 -2.58,-11.66c-1.52,-3.07 -0.3,-7.49 -0.3,-11.66c10.27,3.38 13.9,8.28 13.86,17.8c-0.03,9.15 -0.27,18.29 -0.65,27.83z" fill="#E43C47" id="svg_35" opacity="1"/>
  <path d="m338,661.22c0.63,-8.68 1.26,-16.89 1.88,-25.1c0.45,-0.03 0.89,-0.07 1.33,-0.11c2.24,5.58 4.59,11.11 6.69,16.73c2.6,7 6.48,13.85 3.13,21.74c-0.23,0.56 -0.08,1.32 0.01,1.97c0.79,5.86 -0.09,7 -5.82,7.53c-5.55,0.52 -8.33,-1.59 -8.18,-6.58c0.15,-5.24 0.63,-10.47 0.96,-16.18z" fill="#E43C47" id="svg_36" opacity="1"/>
  <path d="m371.95,646.13c-2.34,-6.07 -5.35,-11.58 -6.73,-17.47c-1.1,-4.73 -0.22,-9.93 -0.22,-15.65c3.93,0.43 7.69,0.84 12.14,1.33c-0.53,12.82 -1.06,25.55 -1.59,38.29c-0.55,0.04 -1.09,0.08 -1.63,0.13c-0.65,-2.08 -1.29,-4.16 -1.97,-6.63z" fill="#E43C46" id="svg_37" opacity="1"/>
  <path d="m496.78,690.4c0.07,-4.16 -0.08,-7.6 4.02,-10.14c1.6,-0.99 1.54,-4.69 2.19,-7.16c0.36,-1.35 0.63,-2.71 1.02,-4.42c2.04,0.92 3.47,2.04 4.98,2.17c3.93,0.35 4.3,2.71 4.02,5.83c-0.84,9.47 -4.35,16.77 -12.84,17.75c-2.76,0.32 -5,0.15 -3.39,-4.03z" fill="#E43C47" id="svg_38" opacity="1"/>
  <path d="m514.06,633.05c0.68,2.54 1.61,4.66 1.88,6.85c0.42,3.4 -1.24,5.48 -4.75,6.14c-1.87,0.35 -3.66,1.15 -4.61,1.46c-1.87,-4.55 -4.41,-8.87 -5.3,-13.5c-0.69,-3.65 0.67,-7.69 1.18,-12.09c6.12,1.21 9.6,5.1 11.6,11.14z" fill="#E43D47" id="svg_39" opacity="1"/>
 </g>
</svg>